{"title":"Pitbull - Bon Bon   By Haunting Summer","uid":6331293,"size":68686076,"categoryP":"video","categoryS":"music_videos","magnet":"?xt=urn:btih:1903bcc174dcca74389d7ae4977ac429d6d4bdb7&amp;dn=Pitbull+-+Bon+Bon+++By+Haunting+Summer&amp;tr=udp%3A%2F%2Ftracker.openbittorrent.com%3A80&amp;tr=udp%3A%2F%2Fopen.demonii.com%3A1337&amp;tr=udp%3A%2F%2Ftracker.coppersurfer.tk%3A6969&amp;tr=udp%3A%2F%2Fexodus.desync.com%3A6969","seeders":0,"leechers":1,"uploader":"HaUnTiNg.SuMMeR","files":-1,"time":1303294821,"description":"============================ PITBULL - BON BON ==============================\n\nFormat                           : AVI\nFormat/Info                      : Audio Video Interleave\nFile size                        : 65.5 MiB\nDuration                         : 3mn 45s\nOverall bit rate                 : 2 437 Kbps\nWriting application              : Lavf51.12.1\nWriting library                  : VirtualDub build 32817/release\n\nVideo\nFormat                           : xvid\nCodec ID                         : xvid\nDuration                         : 3mn 45s\nBit rate                         : 2 295 Kbps\nWidth                            : 640 pixels\nHeight                           : 360 pixels\nDisplay aspect ratio             : 16:9\nFrame rate                       : 29.970 fps\nBits/(Pixel*Frame)               : 0.332\nStream size                      : 61.7 MiB (94%)\n\nAudio\nID                               : 1\nFormat                           : MPEG Audio\nFormat version                   : Version 1\nFormat profile                   : Layer 3\nMode                             : Joint stereo\nMode extension                   : MS Stereo\nCodec ID                         : 55\nCodec ID/Hint                    : MP3\nDuration                         : 3mn 45s\nBit rate mode                    : Constant\nBit rate                         : 128 Kbps\nChannel(s)                       : 2 channels\nSampling rate                    : 44.1 KHz\nStream size                      : 3.44 MiB (5%)\nAlignment                        : Aligned on interleaves\nInterleave, duration             : 26 ms (0.78 video frame)\nInterleave, preload duration     : 522 ms\n\n==============================================================================\n\n                      &lt;a href=&quot; http://bayimg.com/bAhMdaaDk&quot; rel=&quot;nofollow&quot; target=&quot;_NEW&quot;&gt; http://bayimg.com/bAhMdaaDk&lt;/a&gt;\n\n========================= HAUNTING.SUMMER ====================================\n","torrent":{"xt":"urn:btih:1903bcc174dcca74389d7ae4977ac429d6d4bdb7","amp;dn":"Pitbull+-+Bon+Bon+++By+Haunting+Summer","amp;tr":["udp%3A%2F%2Ftracker.openbittorrent.com%3A80","udp%3A%2F%2Fopen.demonii.com%3A1337","udp%3A%2F%2Ftracker.coppersurfer.tk%3A6969","udp%3A%2F%2Fexodus.desync.com%3A6969"],"infoHash":"1903bcc174dcca74389d7ae4977ac429d6d4bdb7","infoHashBuffer":{"type":"Buffer","data":[25,3,188,193,116,220,202,116,56,157,122,228,151,122,196,41,214,212,189,183]},"announce":[],"urlList":[]}}